<?xml version="1.0" encoding="us-ascii" standalone="no"?><svg xmlns="http://www.w3.org/2000/svg" xmlns:xlink="http://www.w3.org/1999/xlink" contentStyleType="text/css" height="181px" preserveAspectRatio="none" style="width:339px;height:181px;background:#FFFFFF;" version="1.1" viewBox="0 0 339 181" width="339px" zoomAndPan="magnify"><defs/><g><!--class alerts--><g id="elem_alerts"><rect codeLine="2" fill="#F1F1F1" height="167.9034" id="alerts" rx="2.5" ry="2.5" style="stroke:#181818;stroke-width:0.5;" width="145" x="7" y="7"/><ellipse cx="47.65" cy="32.2719" fill="#ADD1B2" rx="11" ry="11" style="stroke:#181818;stroke-width:1.0;"/><path d="M44.3063,38.7719 L50.7906,38.7719 L50.7906,36.6625 L46.8375,36.6625 L46.8375,33.3032 L50.025,33.3032 L50.025,31.1938 L46.8375,31.1938 L46.8375,28.2563 L50.65,28.2563 L50.65,26.1469 L44.3063,26.1469 L44.3063,38.7719 Z " fill="#000000"/><text fill="#000000" font-family="sans-serif" font-size="14" lengthAdjust="spacing" textLength="37" x="76.85" y="28.2399">alerts</text><text fill="#000000" font-family="sans-serif" font-size="14" lengthAdjust="spacing" textLength="56" x="67.35" y="48.5118">&#12450;&#12521;&#12540;&#12488;</text><line style="stroke:#181818;stroke-width:0.5;" x1="8" x2="151" y1="57.5438" y2="57.5438"/><ellipse cx="18" cy="73.1798" fill="none" rx="3" ry="3" style="stroke:#038048;stroke-width:1.0;"/><text fill="#000000" font-family="sans-serif" font-size="14" lengthAdjust="spacing" textLength="82" x="27" y="77.7838">alert_id [PK]</text><line style="stroke:#181818;stroke-width:1.0;" x1="8" x2="151" y1="85.8157" y2="85.8157"/><text fill="#000000" font-family="sans-serif" font-size="14" lengthAdjust="spacing" textLength="68" x="13" y="106.0557">picture_id</text><text fill="#000000" font-family="sans-serif" font-size="14" lengthAdjust="spacing" textLength="124" x="13" y="126.3276">status [&#12473;&#12486;&#12540;&#12479;&#12473;]</text><text fill="#000000" font-family="sans-serif" font-size="14" lengthAdjust="spacing" textLength="126" x="13" y="146.5995">created_at [&#20316;&#25104;&#26085;]</text><text fill="#000000" font-family="sans-serif" font-size="14" lengthAdjust="spacing" textLength="133" x="13" y="166.8714">updated_at [&#26356;&#26032;&#26085;]</text></g><!--class pictures--><g id="elem_pictures"><rect codeLine="11" fill="#F1F1F1" height="167.9034" id="pictures" rx="2.5" ry="2.5" style="stroke:#181818;stroke-width:0.5;" width="145" x="187" y="7"/><ellipse cx="227.65" cy="32.2719" fill="#ADD1B2" rx="11" ry="11" style="stroke:#181818;stroke-width:1.0;"/><path d="M224.3063,38.7719 L230.7906,38.7719 L230.7906,36.6625 L226.8375,36.6625 L226.8375,33.3032 L230.025,33.3032 L230.025,31.1938 L226.8375,31.1938 L226.8375,28.2563 L230.65,28.2563 L230.65,26.1469 L224.3063,26.1469 L224.3063,38.7719 Z " fill="#000000"/><text fill="#000000" font-family="sans-serif" font-size="14" lengthAdjust="spacing" textLength="54" x="248.35" y="28.2399">pictures</text><text fill="#000000" font-family="sans-serif" font-size="14" lengthAdjust="spacing" textLength="56" x="247.35" y="48.5118">&#12500;&#12463;&#12481;&#12515;</text><line style="stroke:#181818;stroke-width:0.5;" x1="188" x2="331" y1="57.5438" y2="57.5438"/><ellipse cx="198" cy="73.1798" fill="none" rx="3" ry="3" style="stroke:#038048;stroke-width:1.0;"/><text fill="#000000" font-family="sans-serif" font-size="14" lengthAdjust="spacing" textLength="99" x="207" y="77.7838">picture_id [PK]</text><line style="stroke:#181818;stroke-width:1.0;" x1="188" x2="331" y1="85.8157" y2="85.8157"/><text fill="#000000" font-family="sans-serif" font-size="14" lengthAdjust="spacing" textLength="51" x="193" y="106.0557">alert_id</text><text fill="#000000" font-family="sans-serif" font-size="14" lengthAdjust="spacing" textLength="115" x="193" y="126.3276">picture [&#30011;&#20687;URL]</text><text fill="#000000" font-family="sans-serif" font-size="14" lengthAdjust="spacing" textLength="126" x="193" y="146.5995">created_at [&#20316;&#25104;&#26085;]</text><text fill="#000000" font-family="sans-serif" font-size="14" lengthAdjust="spacing" textLength="133" x="193" y="166.8714">updated_at [&#26356;&#26032;&#26085;]</text></g><!--link alerts to pictures--><g id="link_alerts_pictures"><path codeLine="3" d="M160.27,91 C171.72,91 160.17,91 171.62,91 " fill="none" id="alerts-pictures" style="stroke:#181818;stroke-width:1.0;"/><line style="stroke:#181818;stroke-width:1.0;" x1="156.27" x2="156.27" y1="95" y2="87"/><line style="stroke:#181818;stroke-width:1.0;" x1="159.27" x2="159.27" y1="95" y2="87"/><line style="stroke:#181818;stroke-width:1.0;" x1="160.27" x2="152.27" y1="91" y2="91"/><line style="stroke:#181818;stroke-width:1.0;" x1="175.62" x2="186.62" y1="91" y2="91"/><ellipse cx="175.62" cy="91" fill="none" rx="4" ry="4" style="stroke:#181818;stroke-width:1.0;"/><line style="stroke:#181818;stroke-width:1.0;" x1="182.62" x2="182.62" y1="87" y2="95"/></g><!--SRC=[KypCIyufJKbLA4bCoaajrYievU9Ap4ajAYbMgAdHBTBDhr4eo4mkAIrABGO0]--></g></svg>